<svg width="400" height="300" viewBox="0 0 400 300" fill="none" xmlns="http://www.w3.org/2000/svg">
  <rect width="400" height="300" fill="#F8FAFC"/>
  <rect x="20" y="20" width="360" height="260" rx="8" fill="white" stroke="#E2E8F0" stroke-width="2"/>
  
  <!-- Header -->
  <rect x="40" y="40" width="320" height="40" rx="4" fill="#10B981"/>
  <text x="60" y="65" font-family="Arial, sans-serif" font-size="16" font-weight="bold" fill="white">E-commerce Analytics</text>
  
  <!-- Sales chart -->
  <rect x="40" y="100" width="320" height="80" rx="4" fill="#F1F5F9"/>
  <rect x="60" y="140" width="20" height="20" fill="#2563EB"/>
  <rect x="90" y="130" width="20" height="30" fill="#2563EB"/>
  <rect x="120" y="120" width="20" height="40" fill="#2563EB"/>
  <rect x="150" y="110" width="20" height="50" fill="#2563EB"/>
  <rect x="180" y="125" width="20" height="35" fill="#2563EB"/>
  <rect x="210" y="135" width="20" height="25" fill="#2563EB"/>
  <rect x="240" y="115" width="20" height="45" fill="#2563EB"/>
  <rect x="270" y="105" width="20" height="55" fill="#2563EB"/>
  <rect x="300" y="125" width="20" height="35" fill="#2563EB"/>
  <rect x="330" y="130" width="20" height="30" fill="#2563EB"/>
  
  <!-- Metrics -->
  <rect x="40" y="200" width="100" height="60" rx="4" fill="#FEF3C7"/>
  <text x="50" y="225" font-family="Arial, sans-serif" font-size="14" font-weight="bold" fill="#92400E">$45.2K</text>
  <text x="50" y="240" font-family="Arial, sans-serif" font-size="12" fill="#92400E">Daily Sales</text>
  <text x="50" y="255" font-family="Arial, sans-serif" font-size="10" fill="#92400E">+8.5% vs yesterday</text>
  
  <rect x="150" y="200" width="100" height="60" rx="4" fill="#DBEAFE"/>
  <text x="160" y="225" font-family="Arial, sans-serif" font-size="14" font-weight="bold" fill="#1E40AF">1,247</text>
  <text x="160" y="240" font-family="Arial, sans-serif" font-size="12" fill="#1E40AF">Orders</text>
  <text x="160" y="255" font-family="Arial, sans-serif" font-size="10" fill="#1E40AF">+12% vs yesterday</text>
  
  <rect x="260" y="200" width="100" height="60" rx="4" fill="#FEE2E2"/>
  <text x="270" y="225" font-family="Arial, sans-serif" font-size="14" font-weight="bold" fill="#DC2626">$36.25</text>
  <text x="270" y="240" font-family="Arial, sans-serif" font-size="12" fill="#DC2626">AOV</text>
  <text x="270" y="255" font-family="Arial, sans-serif" font-size="10" fill="#DC2626">+3.2% vs yesterday</text>
</svg>
